Filename:
The Twilight Saga Eclipse DVDRip XviD-DiAMOND
 
http://www.imdb.com/title/tt1325004/

Video
ID                               : 0
Format                           : MPEG-4 Visual
Format profile                   : AdvancedSimple@L5
Format settings, BVOP            : Yes
Format settings, QPel            : No
Format settings, GMC             : No warppoints
Format settings, Matrix          : Default (MPEG)
Muxing mode                      : Packed bitstream
Codec ID                         : XVID
Codec ID/Hint                    : XviD
Duration                         : 2h 3mn
Bit rate                         : 641 Kbps
Width                            : 640 pixels
Height                           : 272 pixels
Display aspect ratio             : 2.35:1
Frame rate                       : 23.976 fps
Resolution                       : 24 bits
Colorimetry                      : 4:2:0
Scan type                        : Progressive
Bits/(Pixel*Frame)               : 0.154
Stream size                      : 568 MiB (81%)
Writing library                  : XviD 1.2.1 (UTC 2008-12-04)

Audio
ID                               : 1
Format                           : MPEG Audio
Format version                   : Version 1
Format profile                   : Layer 3
Format_Settings_Mode             : Joint stereo / MS Stereo
Codec ID                         : 55
Codec ID/Hint                    : MP3
Duration                         : 2h 3mn
Bit rate mode                    : Variable
Bit rate                         : 136 Kbps
Minimum bit rate                 : 128 Kbps
Channel(s)                       : 2 channels
Sampling rate                    : 48.0 KHz
Resolution                       : 16 bits
Stream size                      : 121 MiB (17%)
Alignment                        : Aligned on interleaves
Interleave, duration             : 24 ms (0.58 video frame)
Interleave, preload duration     : 135 ms
Writing library                  : LAME3.98r
Encoding settings                : -m j -V 4 -q 0 -lowpass 17.5 --vbr-new -b 128

P R O U D L Y P R E S E N T i N G: Eclipse.DVDRip.XviD-DiAMOND
THEATRE DATE: 07/04/10 4468
RELEASE DATE: 11/16/10
STORE DATE: 12/04/10
GENRE: Drama | Fantasy | Romance
RUNTiME: 2 hours 3 minutes
RATiNG: 4.8/10 (36,839 votes)
ViDEO: 641 kbps
AUDiO: 136 kbps 2ch. MP3
RESOLUTiON: 640x272 2.35:1
# DiSCS: 1
SUBS: N O T E S
Notes: Very compressable movie so we decided to do at 1C
D size. Enjoy!